<svg width="24" height="24" viewBox="0 0 24 24" fill="currentColor" xmlns="http://www.w3.org/2000/svg">
<g clip-path="url(#clip0_207_1371)">
<path d="M0.582299 11.2375C0.0110139 10.9175 -0.160373 10.2206 0.159547 9.67212L1.87341 6.71289C1.99909 6.48438 2.19333 6.3244 2.41042 6.23297L11.3568 1.20569C11.5396 1.0686 11.7681 1 12.008 1C12.248 1 12.4765 1.0686 12.6593 1.20569L21.6856 6.27869C21.9027 6.39294 22.0855 6.57574 22.1884 6.80426L23.8451 9.68353C24.165 10.232 23.9708 10.929 23.4338 11.2375L22.2912 11.9001V17.5673C22.2912 18.0015 22.0513 18.3785 21.6856 18.5728L12.6593 23.6458C12.4765 23.7829 12.248 23.8515 12.008 23.8515C11.7681 23.8515 11.5396 23.7829 11.3568 23.6458L2.33044 18.5728C1.96481 18.3785 1.72487 18.0015 1.72487 17.5673V11.2375C1.3821 11.4317 0.947923 11.4432 0.582299 11.2375ZM12.008 3.45654V11.1118L18.8178 7.28418L12.008 3.45654ZM4.01002 16.8932L10.8655 20.7551V13.0884L4.01002 9.23798V16.8932ZM20.0061 16.8932V13.2141L14.2932 16.5276C13.9161 16.7333 13.4934 16.7218 13.1506 16.539V20.7551L20.0061 16.8932ZM14.1218 13.9796L21.2972 9.83209L20.6345 8.6781L13.4591 12.8256L14.1218 13.9796Z" />
</g>
<defs>
<clipPath id="clip0_207_1371">
<rect width="24" height="24" />
</clipPath>
</defs>
</svg>
