<svg width="20" height="20" viewBox="0 0 20 20" fill="none" xmlns="http://www.w3.org/2000/svg">
<path d="M5.55556 20C4.94444 20 4.42148 19.7938 3.98667 19.3813C3.55111 18.9681 3.33333 18.4717 3.33333 17.892V10.8827C2.37037 10.6368 1.57407 10.1449 0.944444 9.40711C0.314815 8.6693 0 7.80852 0 6.82477C0 5.89372 0.282593 5.06807 0.847778 4.34783C1.41222 3.62758 2.13889 3.12692 3.02778 2.84585C3.4537 2.00263 4.08815 1.31752 4.93111 0.790514C5.77333 0.263505 6.72222 0 7.77778 0C8.42593 0 9.03222 0.105402 9.59667 0.316205C10.1619 0.527009 10.6759 0.808081 11.1389 1.15942C11.3241 1.12429 11.5 1.09337 11.6667 1.06667C11.8333 1.04067 12.0185 1.02767 12.2222 1.02767C13.4444 1.02767 14.4907 1.44049 15.3611 2.26614C16.2315 3.09179 16.6667 4.08432 16.6667 5.24374C16.6667 5.63021 16.6159 5.99912 16.5144 6.35046C16.4122 6.7018 16.2593 7.03557 16.0556 7.35178H17.7778C18.3889 7.35178 18.9122 7.55801 19.3478 7.97049C19.7826 8.38366 20 8.88011 20 9.45982V15.7839C20 16.3636 19.7826 16.8601 19.3478 17.2733C18.9122 17.6857 18.3889 17.892 17.7778 17.892H15.5556C15.5556 18.4717 15.3381 18.9681 14.9033 19.3813C14.4678 19.7938 13.9444 20 13.3333 20H5.55556ZM2.22222 6.82477C2.22222 7.40448 2.44 7.90057 2.87556 8.31304C3.31037 8.72622 3.83333 8.93281 4.44444 8.93281C5.03704 8.93281 5.54185 8.74835 5.95889 8.37945C6.37519 8.01054 6.80556 7.59772 7.25 7.14097C7.71296 6.66667 8.2363 6.23171 8.82 5.8361C9.40296 5.44119 10.1667 5.24374 11.1111 5.24374H14.4444C14.4444 4.66403 14.227 4.16794 13.7922 3.75547C13.3567 3.34229 12.8333 3.1357 12.2222 3.1357C11.7593 3.1357 11.3704 3.19262 11.0556 3.30646L10.5833 3.47826L9.72222 2.79315C9.51852 2.63505 9.25482 2.48116 8.93111 2.33149C8.60667 2.18252 8.22222 2.10804 7.77778 2.10804C7.18519 2.10804 6.6437 2.25736 6.15333 2.55599C5.66222 2.85463 5.28704 3.25867 5.02778 3.76812L4.63889 4.55863L3.75 4.84848C3.28704 4.98902 2.91667 5.23917 2.63889 5.59895C2.36111 5.95942 2.22222 6.36803 2.22222 6.82477ZM15.5556 15.7839H17.7778V9.45982H15.5556V15.7839Z" fill="currentColor"/>
</svg>
