<svg width="24" height="24" viewBox="0 0 24 24" fill="currentColor" xmlns="http://www.w3.org/2000/svg">
<path fill-rule="evenodd" clip-rule="evenodd" d="M20 5V11.11C21.24 12.37 22 14.09 22 16C22 19.87 18.87 23 15 23C13.09 23 11.37 22.24 10.11 21H4C2.89999 21 2 20.11 2 19V5C2 3.90002 2.89999 3 4 3H8.17999C8.60001 1.84003 9.70001 1 11 1C12.3 1 13.4 1.84003 13.82 3H18C19.11 3 20 3.90002 20 5ZM12 4C12 3.45001 11.55 3 11 3C10.45 3 10 3.45001 10 4C10 4.54999 10.45 5 11 5C11.55 5 12 4.54999 12 4ZM4 5V19H8.67999C8.25 18.09 8 17.08 8 16C8 15.66 8.03 15.33 8.07999 15H6V13H8.67999C9.03998 12.25 9.5 11.57 10.1 11H6V9H15C16.08 9 17.09 9.25 18 9.67999V5H16V7H6V5H4ZM10 16C10 18.76 12.24 21 15 21C17.76 21 20 18.76 20 16C20 13.24 17.76 11 15 11C12.24 11 10 13.24 10 16Z" />
<path d="M15.5 16.25L18.36 17.9399L17.61 19.16L14 17V12H15.5V16.25Z" />
</svg>
