<svg width="24" height="24" viewBox="0 0 24 24" fill="currentColor" xmlns="http://www.w3.org/2000/svg">
<path d="M9.33815 22.3005C9.33815 22.6161 9.07199 22.872 8.74391 22.872H5.62799C5.29967 22.872 5.03375 22.6161 5.03375 22.3005C5.03375 21.9847 5.29967 21.7289 5.62799 21.7289H6.38039V17.1566H7.99199V21.7289H8.74463C9.07199 21.7289 9.33815 21.984 9.33815 22.3005Z" />
<path d="M18.9663 22.3005C18.9663 22.6161 18.7003 22.872 18.372 22.872H15.2561C14.928 22.872 14.6619 22.6161 14.6619 22.3005C14.6619 21.9847 14.928 21.7289 15.2561 21.7289H16.008V17.1566H17.6189V21.7289H18.372C18.7003 21.7289 18.9663 21.984 18.9663 22.3005Z" />
<path d="M12.0125 20.3914C10.8646 20.3914 9.76656 20.082 8.83704 19.4969L1.7652 15.0451V4.72803H22.2348V15.0442L15.1961 19.4919C14.2663 20.0794 13.1671 20.3904 12.0175 20.3914H12.0125ZM3.74616 14.1667L9.99912 18.1027C11.2058 18.8621 12.8258 18.8609 14.0311 18.0994L20.2538 14.1677V6.44787H3.74616V14.1667Z" />
<path d="M3.58346 1.29602H20.4166C20.9003 1.29602 21.3643 1.48819 21.7063 1.83026C22.0484 2.17232 22.2406 2.63627 22.2406 3.12002V3.60386H1.7597V3.12002C1.7597 2.63631 1.95184 2.1724 2.29386 1.83034C2.63587 1.48828 3.09975 1.29608 3.58346 1.29602Z" />
<path d="M12 16.146C11.5122 16.146 11.0354 16.0013 10.6298 15.7303C10.2242 15.4593 9.90812 15.0741 9.72146 14.6235C9.53481 14.1728 9.48598 13.6769 9.58116 13.1985C9.67634 12.7201 9.91125 12.2807 10.2562 11.9358C10.6011 11.5909 11.0406 11.356 11.519 11.2609C11.9974 11.1657 12.4933 11.2146 12.9439 11.4013C13.3946 11.588 13.7797 11.9041 14.0507 12.3097C14.3217 12.7153 14.4663 13.1922 14.4662 13.68C14.4654 14.3338 14.2053 14.9606 13.743 15.4229C13.2806 15.8852 12.6538 16.1452 12 16.146ZM12 12.4109C11.749 12.4109 11.5037 12.4853 11.2951 12.6247C11.0864 12.7641 10.9238 12.9623 10.8277 13.1941C10.7317 13.426 10.7065 13.6811 10.7555 13.9272C10.8044 14.1733 10.9252 14.3994 11.1027 14.5769C11.2801 14.7544 11.5062 14.8752 11.7523 14.9242C11.9984 14.9732 12.2535 14.9481 12.4854 14.8521C12.7173 14.7561 12.9155 14.5935 13.0549 14.3849C13.1944 14.1762 13.2688 13.9309 13.2689 13.68C13.2686 13.3435 13.1348 13.0209 12.8969 12.783C12.659 12.5451 12.3364 12.4112 12 12.4109Z" />
<path d="M12 14.2812C11.8446 14.2812 11.6955 14.2194 11.5856 14.1095C11.4757 13.9996 11.4139 13.8505 11.4139 13.6951V11.8123C11.4139 11.7353 11.4291 11.6591 11.4586 11.588C11.488 11.5169 11.5312 11.4523 11.5856 11.3979C11.64 11.3434 11.7046 11.3003 11.7757 11.2708C11.8468 11.2414 11.9231 11.2262 12 11.2262C12.077 11.2262 12.1532 11.2414 12.2243 11.2708C12.2954 11.3003 12.36 11.3434 12.4144 11.3979C12.4689 11.4523 12.512 11.5169 12.5415 11.588C12.5709 11.6591 12.5861 11.7353 12.5861 11.8123V13.6951C12.5861 13.8505 12.5244 13.9996 12.4144 14.1095C12.3045 14.2194 12.1555 14.2812 12 14.2812Z" />
</svg>
