<svg width="248" height="257" viewBox="0 0 248 257" fill="none" xmlns="http://www.w3.org/2000/svg">
<path fill-rule="evenodd" clip-rule="evenodd" d="M99.1608 8.26257C105.142 4.83149 110.634 2.31892 114.786 1.11347C117.905 0.207726 119.516 0.0202404 124.359 0.000875685C132.005 -0.0299318 134.368 0.71957 147.876 7.45629C153.578 10.2998 159.635 13.1257 161.334 13.7357C164.633 14.9192 172.297 16.5427 181.628 18.0347C193.417 19.9201 198.083 21.8852 203.339 27.1806C208.334 32.2114 213.77 41.0343 216.716 48.8919C218.621 53.9734 220.848 56.8275 231.223 67.4842C240.658 77.1758 244.229 81.5624 246.395 86.1228C247.777 89.0341 247.811 89.255 247.947 96.2109C248.068 102.375 247.899 104.602 246.68 112.935C245.392 121.741 245.295 123.157 245.533 129.809C245.691 134.241 246.157 139.043 246.729 142.132C247.909 148.501 248.42 162.99 247.597 166.741C246.199 173.108 243.005 177.551 231.275 189.444C221.378 199.478 219.224 202.408 214.453 212.328C208.967 223.736 206.054 227.961 201.04 231.788C195.554 235.974 189.406 238.025 176.27 240.049C162.499 242.172 158.706 243.428 147.664 249.528C135.792 256.086 132.895 257 123.979 257C118.031 257 117.056 256.887 113.778 255.816C111.784 255.164 105.785 252.412 100.447 249.7C86.9903 242.862 84.9484 242.223 65.4434 238.747C53.9114 236.692 48.26 234.027 43.1695 228.243C39.1797 223.71 33.5182 213.835 30.5136 206.168C28.8905 202.026 27.4058 200.188 17.7135 190.324C5.36348 177.754 2.44715 173.721 0.6872 166.778C-0.316528 162.818 0.0580528 154.777 1.84624 141.912C3.525 129.833 3.47029 126.223 1.42489 114.185C-0.188137 104.693 -0.471391 93.9694 0.77897 89.7294C2.64922 83.3857 7.59463 76.4747 15.2106 69.5611C24.3748 61.2418 28.0235 56.2677 34.0163 43.9262C36.1742 39.4824 38.6136 34.7979 39.4378 33.5168C42.7424 28.379 48.744 23.415 54.6433 20.9403C58.9159 19.1477 63.1351 18.1469 72.5772 16.6858C85.2392 14.7264 91.164 12.8489 99.1608 8.26257ZM146.332 13.6125C138.97 9.9495 133.675 7.59713 131.551 7.04743C121.593 4.46929 114.801 6.06027 100.667 14.2832C93.2893 18.5756 87.1703 20.4896 73.3131 22.8398C62.8704 24.6112 57.6448 25.9918 53.8412 27.986C48.1722 30.9576 45.9172 33.9256 39.808 46.4568C33.6625 59.061 31.2376 62.3332 19.4585 73.9155C9.07176 84.1291 7.31799 86.8974 6.21367 94.8206C5.62776 99.0258 5.86115 102.328 7.62772 114.845C9.47855 127.962 9.46796 134.083 7.57742 143.893C5.81086 153.06 5.39436 160.497 6.41839 164.578C8.00936 170.916 9.5915 173.145 19.8313 183.478C31.9714 195.727 33.7993 198.271 40.4031 212.109C44.9012 221.534 49.8135 227.37 55.4445 229.976C58.5417 231.409 61.8177 232.166 70.4559 233.443C79.771 234.821 87.672 236.719 91.9132 238.597C93.6948 239.386 98.2299 241.659 101.991 243.649C116.726 251.445 123.286 252.727 132.93 249.699C137.919 248.132 141.051 246.675 146.998 243.153C155.303 238.236 161.05 236.38 174.423 234.297C183.694 232.853 186.748 232.202 190.307 230.914C198.545 227.931 201.5 224.591 208.254 210.634C214.276 198.187 218.488 192.473 227.789 184.13C232.689 179.735 237.358 174.315 239.041 171.069C241.001 167.287 241.517 164.851 241.721 158.416C241.896 152.92 241.737 150.751 240.58 142.792C238.244 126.719 238.288 124.79 241.392 107.584C242.85 99.4985 242.507 93.6028 240.289 88.5821C238.424 84.3628 235.768 81.1254 226.959 72.3303C216.546 61.9349 214.587 59.2133 208.278 46.3842C202.303 34.232 199.525 30.7938 193.099 27.5947C189.8 25.9522 186.909 25.2379 175.828 23.3261C161.542 20.8615 159.637 20.2344 146.332 13.6125ZM104.124 16.3051C109.909 12.8494 115.54 10.5855 120.595 9.68323C124.089 9.0596 130.424 9.47814 133.981 10.5674C135.678 11.0872 141.732 13.8739 147.435 16.7597C159.46 22.8455 161.383 23.4709 175.671 25.9483C186.871 27.89 189.929 28.7892 193.781 31.2727C199.671 35.0708 202.81 39.3196 208.564 51.2848C210.594 55.5063 212.884 59.8994 213.654 61.0468C214.425 62.1942 218.559 66.5987 222.843 70.8348C233.526 81.3982 237.486 86.9453 238.788 93.1645C239.463 96.394 239.104 103.908 237.908 111.545C235.759 125.272 235.768 128.797 237.982 141.032C238.699 144.993 238.943 148.128 238.961 153.575C238.981 160.035 238.87 161.176 237.958 163.917C235.882 170.154 232.212 175.134 223.993 182.871C216.025 190.373 213.176 194.2 208.452 203.747C202.098 216.59 199.912 219.687 194.793 223.103C190.466 225.989 185.336 227.585 174.204 229.508C164.563 231.174 157.431 232.975 153.338 234.777C151.911 235.406 148.456 237.298 145.659 238.982C139.887 242.458 133.822 244.802 128.643 245.558C121.608 246.584 115.506 244.882 103.961 238.674C92.9174 232.737 89.878 231.718 75.9603 229.283C63.1633 227.045 59.5958 225.932 54.8039 222.686C50.2145 219.577 46.328 213.853 41.5158 203.117C38.0026 195.279 35.718 192.119 28.1373 184.616C20.7115 177.265 15.2953 170.448 12.9168 165.459C11.4079 162.294 11.3364 161.925 11.1754 156.428C11.0307 151.478 11.2032 149.556 12.439 142.343C14.3009 131.479 14.2987 127.182 12.4222 113.745C11.2442 105.311 11.0466 102.742 11.235 98.3415C11.6541 88.5702 13.8892 84.6506 25.6675 73.0353C34.8189 64.01 37.1188 60.821 42.6466 49.4896C46.9849 40.5968 49.0489 37.4148 52.6133 34.1228C57.4692 29.6381 63.4774 27.3584 75.9206 25.2789C90.594 22.8266 96.1845 21.0477 104.124 16.3051ZM146.332 22.6285C137.417 17.878 134.128 16.4644 130.017 15.6176C122.692 14.1081 119.338 14.9324 105.079 21.7474C92.3129 27.8491 88.9135 28.9172 74.8573 31.2436C67.0088 32.5428 62.9789 33.8909 58.9887 36.5531C54.6852 39.4243 53.074 41.7195 47.1248 53.4506C41.0243 65.4809 38.6802 68.5511 28.9037 77.318C21.9729 83.5332 18.6524 88.6987 17.4149 95.1903C16.5682 99.6323 16.8056 104.325 18.397 114.625C19.1144 119.266 19.5825 124.236 19.6301 127.715L19.7073 133.322L110.412 133.326C160.3 133.328 207.701 133.461 215.749 133.621L230.38 133.912L230.394 128.45C230.402 125.445 230.694 120.908 231.042 118.366C231.391 115.825 231.682 113.547 231.69 113.305C231.699 113.015 221.96 112.898 203.136 112.963L174.568 113.061L143.205 81.2477L141.725 81.7626C134.982 84.1071 127.904 77.7625 129.785 71.0606C130.888 67.13 134.701 64.2332 138.772 64.2332C144.8 64.2332 149.524 70.8541 147.425 76.3608C147.07 77.2929 147.14 77.8008 147.756 78.7585C149.389 81.2966 174.586 106.443 176.123 107.069C177.338 107.563 182.249 107.757 199.755 107.999C211.909 108.168 224.265 108.165 227.212 107.993L232.569 107.68L232.888 106.091C233.062 105.218 233.202 102.622 233.197 100.322C233.187 95.3369 232.107 91.3486 229.654 87.2327C228.132 84.6792 226.714 83.2013 216.62 73.6515C212.355 69.6157 209.497 65.2749 203.554 53.8009C196.627 40.4278 194.741 38.0164 188.969 35.1535C185.449 33.4076 181.497 32.4112 170.738 30.5575C158.824 28.5048 155.068 27.2849 146.332 22.6285ZM137.471 76.9844C141.646 78.3588 144.791 73.3623 141.61 70.407C140.95 69.7935 140.049 69.5145 138.728 69.5145C133.978 69.5145 132.97 75.5025 137.471 76.9844ZM230.507 166.527C233.476 160.672 234.024 153.029 232.154 143.562L231.089 138.171H19.1188L18.6176 140.482C17.6196 145.085 16.8448 151.226 16.8422 154.554V157.314H17.9425C23.0163 156.654 74.5608 155.831 77.9307 157.624C78.6503 158.007 85.8171 164.903 93.8571 172.948L108.475 187.576L110.136 187.029C115.869 185.141 122.131 189.242 122.636 195.214C122.876 198.043 121.989 200.016 119.417 202.381C116.042 205.484 112.14 205.756 108.298 203.156C104.819 200.802 103.303 196.17 104.824 192.54L105.544 190.821L91.3591 176.929C83.5578 169.288 76.653 162.74 76.0159 162.377C75.0188 161.809 70.8746 161.717 46.2958 161.717C17.9377 161.717 17.7356 161.723 18.0052 162.597C19.2908 166.77 21.8824 170.097 31.2032 179.541C36.0141 184.415 40.4724 189.359 41.5233 190.984C42.5407 192.557 45.4315 198.033 47.9472 203.151C51.8805 211.155 52.9045 212.867 55.2597 215.378C59.8199 220.241 64.5924 222.047 79.2548 224.459C91.1491 226.417 93.7742 227.267 104.197 232.539C114.215 237.606 117.172 238.745 122.088 239.427C128.705 240.345 134.524 238.683 146.773 232.376C157.068 227.075 159.877 226.172 172.804 224.004C181.663 222.519 185.667 221.445 189.456 219.537C194.804 216.844 197.096 213.829 203 201.723C208.599 190.243 209.638 188.805 218.232 180.641C225.987 173.275 228.62 170.246 230.507 166.527ZM117.433 195.825C117.433 194.5 117.147 193.739 116.35 192.945C115.531 192.127 114.798 191.864 113.339 191.864C110.801 191.864 109.291 193.342 109.291 195.825C109.291 198.308 110.801 199.786 113.339 199.786C115.953 199.786 117.433 198.355 117.433 195.825Z" fill="white"/>
</svg>
