<svg width="247" height="256" viewBox="0 0 247 256" fill="none" xmlns="http://www.w3.org/2000/svg">
<path fill-rule="evenodd" clip-rule="evenodd" d="M98.4274 8.22386C104.365 4.80885 109.816 2.30807 113.938 1.10826C117.033 0.206759 118.632 0.0201456 123.44 0.000871588C131.028 -0.0297916 133.374 0.716198 146.782 7.42137C152.443 10.2516 158.455 13.0643 160.141 13.6714C163.416 14.8493 171.023 16.4653 180.285 17.9503C191.987 19.8268 196.618 21.7827 201.836 27.0532C206.794 32.0606 212.189 40.842 215.114 48.6629C217.005 53.7206 219.215 56.5613 229.513 67.1682C238.879 76.8144 242.423 81.1803 244.573 85.7193C245.945 88.6169 245.979 88.837 246.114 95.76C246.234 101.896 246.066 104.112 244.856 112.406C243.578 121.17 243.482 122.58 243.718 129.201C243.874 133.612 244.337 138.392 244.905 141.467C246.076 147.806 246.583 162.226 245.766 165.96C244.379 172.297 241.208 176.72 229.565 188.557C219.741 198.544 217.603 201.46 212.868 211.333C207.422 222.688 204.531 226.894 199.554 230.702C194.108 234.869 188.006 236.91 174.967 238.925C161.297 241.037 157.533 242.289 146.572 248.36C134.789 254.886 131.912 255.796 123.062 255.796C117.159 255.796 116.191 255.684 112.936 254.617C110.958 253.969 105.003 251.229 99.7044 248.53C86.3472 241.725 84.3204 241.089 64.9596 237.629C53.5128 235.583 47.9032 232.931 42.8503 227.174C38.89 222.662 33.2704 212.833 30.288 205.202C28.6768 201.08 27.2032 199.25 17.5825 189.432C5.32383 176.921 2.42905 172.908 0.682121 165.997C-0.314188 162.055 0.0576212 154.052 1.83258 141.247C3.49894 129.225 3.44463 125.632 1.41435 113.65C-0.186749 104.203 -0.467904 93.5292 0.773212 89.3094C2.62963 82.9952 7.53848 76.1165 15.0982 69.2353C24.1946 60.9549 27.8163 56.0042 33.7648 43.7205C35.9068 39.2975 38.3281 34.635 39.1462 33.3598C42.4264 28.2461 48.3836 23.3054 54.2393 20.8423C58.4803 19.058 62.6683 18.0619 72.0406 16.6076C84.609 14.6575 90.4901 12.7888 98.4274 8.22386Z" fill="#334355"/>
<path fill-rule="evenodd" clip-rule="evenodd" d="M102.646 16.1383C108.358 12.69 113.917 10.431 118.908 9.53068C122.357 8.9084 128.612 9.32604 132.124 10.413C133.799 10.9316 139.777 13.7124 145.407 16.5919C157.28 22.6646 159.178 23.2887 173.285 25.7607C184.343 27.6983 187.362 28.5955 191.165 31.0736C196.98 34.8636 200.08 39.1032 205.76 51.0426C207.765 55.255 210.026 59.6387 210.786 60.7836C211.547 61.9285 215.629 66.3236 219.858 70.5505C230.405 81.0912 234.316 86.6264 235.601 92.8321C236.268 96.0547 235.912 103.553 234.732 111.173C232.61 124.871 232.619 128.388 234.805 140.596C235.513 144.549 235.754 147.677 235.772 153.112C235.792 159.559 235.682 160.698 234.782 163.433C232.732 169.656 229.108 174.625 220.994 182.346C213.127 189.831 210.314 193.65 205.65 203.177C199.376 215.992 197.218 219.082 192.164 222.491C187.893 225.371 182.827 226.964 171.837 228.882C162.317 230.544 155.276 232.342 151.236 234.14C149.827 234.767 146.415 236.655 143.654 238.336C137.955 241.805 131.967 244.143 126.853 244.897C119.908 245.921 113.883 244.223 102.484 238.029C91.5809 232.104 88.5805 231.087 74.8394 228.657C62.2048 226.424 58.6825 225.314 53.9514 222.075C49.4203 218.973 45.583 213.261 40.8317 202.548C37.363 194.727 35.1075 191.574 27.6229 184.086C20.2913 176.751 14.9439 169.949 12.5955 164.971C11.1058 161.813 11.0352 161.444 10.8762 155.959C10.7333 151.02 10.9037 149.102 12.1238 141.905C13.962 131.064 13.9598 126.776 12.1072 113.368C10.9442 104.952 10.749 102.389 10.935 97.9979C11.3488 88.2477 13.5556 84.3366 25.1844 72.7463C34.2197 63.7405 36.4905 60.5583 41.9482 49.2513C46.2317 40.3776 48.2694 37.2025 51.7886 33.9176C56.5829 29.4426 62.5149 27.1677 74.8002 25.0927C89.2874 22.6457 94.807 20.8706 102.646 16.1383ZM144.318 22.4481C135.517 17.7078 132.269 16.2972 128.211 15.4523C120.978 13.946 117.666 14.7685 103.589 21.5689C90.9846 27.6574 87.6282 28.7232 73.7504 31.0446C66.0015 32.341 62.0227 33.6862 58.0831 36.3427C53.8342 39.2077 52.2434 41.4979 46.3697 53.2037C40.3465 65.2081 38.0321 68.2717 28.3796 77.0198C21.5367 83.2216 18.2584 88.376 17.0365 94.8536C16.2006 99.286 16.4349 103.968 18.0062 114.247C18.7144 118.878 19.1766 123.837 19.2237 127.308L19.2999 132.904L108.854 132.907C158.109 132.909 204.909 133.042 212.854 133.202L227.3 133.492L227.314 128.042C227.322 125.044 227.609 120.516 227.954 117.98C228.298 115.444 228.585 113.171 228.593 112.929C228.602 112.64 218.986 112.524 200.402 112.588L172.196 112.686L156.714 96.8131L141.231 80.941L139.769 81.4548C133.113 83.7942 126.124 77.4633 127.981 70.7758C129.071 66.8537 132.835 63.9631 136.853 63.9631C142.806 63.9631 147.47 70.5698 145.398 76.0646C145.047 76.9947 145.116 77.5015 145.725 78.4571C147.336 80.9898 172.213 106.082 173.732 106.707C174.931 107.2 179.78 107.393 197.064 107.635C209.064 107.803 221.262 107.8 224.172 107.628L229.462 107.316L229.776 105.731C229.948 104.859 230.086 102.269 230.081 99.9742C230.071 94.9998 229.005 91.0201 226.583 86.9131C225.08 84.3651 223.68 82.8904 213.714 73.3611C209.503 69.334 206.682 65.0026 200.814 53.5533C193.975 40.209 192.113 37.8029 186.414 34.9461C182.938 33.204 179.037 32.2097 168.415 30.36C156.652 28.3118 152.944 27.0944 144.318 22.4481ZM135.57 76.6869C139.692 78.0584 142.796 73.0726 139.657 70.1236C139.005 69.5115 138.115 69.233 136.811 69.233C132.121 69.233 131.126 75.2082 135.57 76.6869ZM227.425 166.036C230.357 160.194 230.897 152.568 229.051 143.122L227.999 137.742H123.359H18.7188L18.224 140.047C17.2386 144.641 16.4737 150.769 16.4711 154.09V156.843H17.5575C22.5669 156.185 73.4577 155.364 76.7848 157.153C77.4953 157.535 84.5712 164.416 92.5092 172.444L106.941 187.04L108.581 186.494C114.242 184.611 120.424 188.702 120.923 194.662C121.16 197.485 120.284 199.453 117.744 201.814C114.413 204.909 110.56 205.181 106.767 202.587C103.332 200.238 101.835 195.616 103.336 191.994L104.048 190.278L90.0428 176.416C82.3405 168.792 75.5233 162.258 74.8943 161.896C73.9098 161.329 69.8182 161.237 45.5512 161.237C17.5527 161.237 17.3532 161.243 17.6193 162.115C18.8887 166.279 21.4474 169.599 30.6499 179.023C35.3998 183.886 39.8015 188.82 40.8391 190.441C41.8436 192.011 44.6979 197.474 47.1817 202.582C51.0651 210.568 52.0761 212.276 54.4014 214.783C58.9038 219.634 63.6157 221.437 78.092 223.844C89.8354 225.797 92.4273 226.646 102.718 231.906C112.609 236.962 115.528 238.099 120.381 238.779C126.914 239.695 132.66 238.037 144.754 231.744C154.918 226.455 157.692 225.553 170.454 223.39C179.201 221.908 183.154 220.836 186.895 218.932C192.175 216.245 194.437 213.237 200.267 201.157C205.795 189.702 206.821 188.267 215.306 180.121C222.962 172.77 225.563 169.748 227.425 166.036ZM115.786 195.272C115.786 193.95 115.504 193.19 114.717 192.397C113.908 191.581 113.184 191.319 111.744 191.319C109.238 191.319 107.747 192.794 107.747 195.272C107.747 197.749 109.238 199.224 111.744 199.224C114.325 199.224 115.786 197.796 115.786 195.272Z" fill="white"/>
</svg>
